<?xml version="1.0" encoding="UTF-8"?>
<svg width="752pt" height="752pt" version="1.1" viewBox="0 0 752 752" xmlns="http://www.w3.org/2000/svg">
 <path d="m355.78 163.38c28.613 0 54.266 11.84 73.012 30.094 18.746 18.746 30.094 44.398 30.094 73.012s-11.348 54.266-30.094 73.012c-8.3867 8.3867-18.254 15.293-29.598 20.719 5.918 1.4805 11.84 3.4531 17.758 5.918 5.918 2.4648 8.8789 8.8789 6.4141 14.305-2.4648 5.918-8.8789 8.8789-14.801 6.4141-8.3867-3.4531-17.266-5.918-26.145-7.3984-8.8789-1.4805-17.758-2.4648-27.133-2.4648-40.453 0-76.957 16.281-104.09 43.41-26.641 26.641-43.41 63.145-43.41 103.6v20.227c0 3.9453 1.4805 7.3984 3.9453 9.8672 2.4648 2.4648 6.4141 3.9453 10.852 3.9453h103.6c5.918 0 11.348 4.9336 11.348 11.348 0 6.4141-4.9336 11.348-11.348 11.348h-103.6c-10.359 0-19.734-3.9453-26.145-10.852-6.9062-6.4141-10.852-15.785-10.852-26.145l-0.003907-19.742c0-46.371 19.238-89.289 49.824-119.88 20.719-20.719 46.863-36.012 75.969-43.906-10.852-4.9336-20.719-12.332-29.105-20.719-18.746-18.746-30.094-44.398-30.094-73.012s11.348-54.266 30.094-73.012c19.242-18.25 44.895-30.09 73.508-30.09zm100.14 280.7c15.293 0 29.598 6.4141 39.465 16.281 10.359 10.359 16.281 24.172 16.281 39.465s-6.4141 29.598-16.281 39.957c-10.359 9.8672-24.172 16.281-39.465 16.281s-29.598-6.4141-39.465-16.281c-9.8672-10.359-16.281-24.172-16.281-39.957 0-15.293 6.4141-29.598 16.281-39.465s24.172-16.281 39.465-16.281zm23.68 32.559c-5.918-5.918-14.305-9.8672-23.68-9.8672-9.3711 0-17.758 3.9453-23.68 9.8672-5.918 5.918-9.8672 14.305-9.8672 23.68 0 9.3711 3.9453 17.758 9.8672 23.68 5.918 5.918 14.305 9.8672 23.68 9.8672 9.3711 0 17.758-3.4531 23.68-9.8672 5.918-5.918 9.8672-14.305 9.8672-23.68 0-9.3711-3.9492-17.758-9.8672-23.68zm-94.223-60.184h14.801l2.9609-6.4141c4.4414-9.3711 8.8789-18.746 22.691-18.746h60.676c7.3984 0 12.824 3.4531 16.773 7.8945 2.9609 3.4531 4.9336 7.8945 6.9062 11.84l1.9727 4.9336h13.812c10.852 0 20.719 4.4414 27.625 11.348s11.348 16.773 11.348 27.625v93.234c0 10.852-4.4414 20.719-11.348 27.625s-16.773 11.84-27.625 11.84h-140.59c-10.852 0-20.719-4.4414-27.625-11.84-6.9062-6.9062-11.348-16.773-11.348-27.625v-92.25c0-10.852 4.4414-20.719 11.348-27.625 6.9062-7.3984 16.77-11.84 27.625-11.84zm22.199 22.691h-21.707c-4.4414 0-8.8789 1.9727-11.84 4.9336-2.9609 2.9609-4.9336 6.9062-4.9336 11.84v93.234c0 4.4414 1.9727 8.8789 4.9336 11.84 2.9609 2.9609 7.3984 4.9336 11.84 4.9336h141.09c4.4414 0 8.8789-1.9727 11.84-4.9336 2.9609-2.9609 4.9336-7.3984 4.9336-11.84v-93.234c0-4.4414-1.9727-8.8789-4.9336-11.84-2.9609-2.9609-6.9062-4.9336-11.84-4.9336h-21.211c-4.4414 0-8.8789-2.4648-10.359-6.9062l-4.9336-11.84c-0.98828-2.4648-1.9727-4.9336-3.4531-5.918h-60.676c-0.49219 0-0.98828 2.9609-2.4648 5.918l-5.918 11.84c-1.9766 3.9492-5.9258 6.9062-10.363 6.9062zm4.9336-229.39c-14.305-14.305-34.531-23.68-56.73-23.68-22.199 0-42.426 8.8789-56.73 23.68-14.305 14.305-23.68 34.531-23.68 56.73s8.8789 42.426 23.68 56.73c14.801 14.305 34.531 23.68 56.73 23.68 22.199 0 42.426-8.8789 56.73-23.68 14.305-14.801 23.68-34.531 23.68-56.73s-8.8828-42.422-23.68-56.73z"/>
</svg>
